<svg width="26" height="27" viewBox="0 0 26 27" fill="none" xmlns="http://www.w3.org/2000/svg">
    <g clip-path="url(#clip0_1951_3669)">
        <path
            d="M22.1 0.84082H3.9C1.74609 0.84082 0 2.58691 0 4.74082V22.9408C0 25.0947 1.74609 26.8408 3.9 26.8408H22.1C24.2539 26.8408 26 25.0947 26 22.9408V4.74082C26 2.58691 24.2539 0.84082 22.1 0.84082Z"
            fill="#6FDA44" />
        <path
            d="M18.1391 15.9177C17.2758 15.9177 16.4633 15.5521 15.732 14.9579L15.9098 14.1149L15.9148 14.0845C16.0773 13.1907 16.5801 11.6876 18.1391 11.6876C19.307 11.6876 20.2566 12.6372 20.2566 13.8052C20.2566 14.9731 19.307 15.9177 18.1391 15.9177ZM18.1391 9.54463C16.1484 9.54463 14.6098 10.8345 13.9801 12.9622C13.0254 11.5251 12.2992 9.80361 11.8777 8.35127H9.73477V13.922C9.73477 15.0239 8.84102 15.9177 7.73906 15.9177C6.63711 15.9177 5.74336 15.0239 5.74336 13.922V8.34619H3.60547V13.9169C3.60547 16.197 5.45898 18.0708 7.73906 18.0708C10.0191 18.0708 11.8727 16.197 11.8727 13.9169V12.9825C12.2891 13.8509 12.7969 14.7294 13.4164 15.5013L12.1063 21.6661H14.2949L15.2445 17.1974C16.0773 17.7306 17.032 18.0657 18.1289 18.0657C20.475 18.0657 22.3844 16.1462 22.3844 13.795C22.3895 11.454 20.4852 9.54463 18.1391 9.54463Z"
            fill="white" />
    </g>
    <defs>
        <clipPath id="clip0_1951_3669">
            <rect width="26" height="26" fill="white" transform="translate(0 0.84082)" />
        </clipPath>
    </defs>
</svg>