<svg width="26" height="27" viewBox="0 0 26 27" fill="none" xmlns="http://www.w3.org/2000/svg">
<g clip-path="url(#clip0_1951_3678)">
<rect x="5" y="5.62793" width="16" height="17" fill="white"/>
<path fill-rule="evenodd" clip-rule="evenodd" d="M12.9962 0.62793C5.82956 0.62793 0 6.45912 0 13.6278C0 16.4708 0.916848 19.1074 2.47542 21.2475L0.855611 26.0775L5.85241 24.4805C7.90758 25.8409 10.3601 26.6279 13.0038 26.6279C20.1704 26.6279 26 20.7965 26 13.628C26 6.45935 20.1704 0.628145 13.0038 0.628145L12.9962 0.62793ZM9.36696 7.23129C9.11489 6.62758 8.92384 6.60472 8.54196 6.58919C8.41194 6.58164 8.26703 6.5741 8.10639 6.5741C7.60958 6.5741 7.09013 6.71926 6.77682 7.0402C6.39494 7.42996 5.44745 8.3393 5.44745 10.2042C5.44745 12.069 6.80744 13.8726 6.99072 14.125C7.18177 14.3769 9.64209 18.2594 13.4622 19.8417C16.4495 21.0797 17.336 20.965 18.0159 20.8198C19.0091 20.6058 20.2546 19.8719 20.5679 18.9856C20.8812 18.0989 20.8812 17.3422 20.7893 17.1818C20.6977 17.0213 20.4454 16.9298 20.0635 16.7385C19.6816 16.5474 17.8248 15.6303 17.4733 15.508C17.1294 15.3781 16.801 15.4241 16.5414 15.791C16.1746 16.303 15.8156 16.8229 15.5251 17.136C15.2959 17.3806 14.9214 17.4112 14.6083 17.2812C14.188 17.1056 13.0115 16.6926 11.5597 15.401C10.4365 14.4 9.67252 13.1544 9.45107 12.7799C9.2294 12.398 9.42818 12.176 9.60371 11.9698C9.79475 11.7328 9.97806 11.5647 10.1691 11.343C10.3602 11.1215 10.4671 11.0067 10.5894 10.7468C10.7194 10.4947 10.6275 10.2348 10.5359 10.0437C10.4442 9.85258 9.68027 7.98772 9.36696 7.23129Z" fill="#67C15E"/>
</g>
<defs>
<clipPath id="clip0_1951_3678">
<rect width="26" height="26" fill="white" transform="translate(0 0.62793)"/>
</clipPath>
</defs>
</svg>
