<svg width="30" height="29" viewBox="0 0 30 29" fill="none" xmlns="http://www.w3.org/2000/svg">
<path d="M12.4463 21.2603C11.9504 21.7685 11.6993 22.3625 11.583 23.0176C11.5708 23.1033 11.4667 23.2074 11.3809 23.2441C9.83187 23.8625 8.33178 23.5748 7.35826 22.0379C7.08273 21.6032 6.68475 21.2236 6.28676 20.8869C5.86429 20.5256 5.3316 20.446 4.78667 20.5256C4.42543 20.5746 4.35195 20.7705 4.59074 21.0399C4.67034 21.1318 4.76218 21.2175 4.86627 21.2787C5.71122 21.7563 6.21941 22.54 6.55617 23.3911C7.08273 24.7259 8.09299 25.2647 9.42164 25.3443C10.0094 25.381 10.5972 25.283 11.1911 25.2524C11.283 25.2463 11.3687 25.2402 11.4973 25.2341C11.4973 25.7912 11.4973 26.33 11.4973 26.8688C11.4973 27.1566 11.4973 27.4383 11.5095 27.726C11.534 28.4424 11.087 28.7853 10.4013 28.5587C8.82773 28.0322 7.38887 27.2546 6.10308 26.2137C3.06616 23.7707 1.25381 20.6113 0.727249 16.754C-0.295261 9.25351 4.65809 2.26126 12.0851 0.663202C19.8304 -1.0022 27.588 3.95115 29.2289 11.6843C30.3127 16.7846 28.9779 21.2542 25.3961 25.032C23.8837 26.6239 22.0469 27.7505 19.9835 28.4914C19.8427 28.5404 19.6896 28.5894 19.5427 28.6016C19.01 28.6383 18.7161 28.3628 18.7161 27.824C18.7161 26.5872 18.7467 25.3565 18.7222 24.1197C18.71 23.5625 18.6548 22.9931 18.5079 22.4665C18.3916 22.0379 18.1038 21.6583 17.8834 21.2359C18.1711 21.1869 18.514 21.1379 18.8569 21.0705C20.0753 20.844 21.2203 20.4583 22.2 19.6684C23.3633 18.7316 23.9572 17.4642 24.2021 16.0315C24.4042 14.8681 24.4715 13.7048 24.1715 12.5415C23.9633 11.7394 23.5837 11.023 23.051 10.3924C22.9347 10.2515 22.9041 10.1352 22.9592 9.95151C23.3143 8.7943 23.2102 7.65546 22.8061 6.53498C22.751 6.37579 22.6592 6.31456 22.4939 6.31456C21.8816 6.30844 21.2999 6.46763 20.755 6.72479C20.1488 7.01256 19.5733 7.36769 18.9794 7.67383C18.8385 7.7473 18.6487 7.79628 18.5079 7.75954C16.2486 7.20237 13.9893 7.19625 11.7299 7.76567C11.5952 7.8024 11.4116 7.75954 11.2891 7.67995C10.3339 7.08603 9.36041 6.53498 8.22769 6.34517C7.56031 6.22884 7.51133 6.25945 7.32152 6.8901C7.01538 7.93098 6.96639 8.97186 7.30315 10.0189C7.32764 10.1046 7.30315 10.2454 7.24805 10.3066C6.02348 11.7333 5.74795 13.4048 5.93776 15.2049C6.06022 16.3988 6.34799 17.5316 7.02762 18.5357C7.9338 19.8705 9.26245 20.5562 10.7809 20.9236C11.3136 21.0705 11.8585 21.1501 12.4463 21.2603Z" fill="white"/>
</svg>
