<svg width="60" height="61" viewBox="0 0 60 61" fill="none" xmlns="http://www.w3.org/2000/svg">
<path d="M48.3063 25.3402H11.7313C8.03127 25.3402 5.03125 22.3153 5.03125 18.6403V12.0653C5.03125 8.36525 8.05627 5.36523 11.7313 5.36523H48.3063C52.0063 5.36523 55.0063 8.39025 55.0063 12.0653V18.6403C55.0063 22.3153 51.9813 25.3402 48.3063 25.3402Z" stroke="#0C131C" stroke-width="2.5" stroke-linecap="round" stroke-linejoin="round"/>
<path d="M48.3063 55.3402H11.7313C8.03127 55.3402 5.03125 52.3153 5.03125 48.6403V42.0653C5.03125 38.3653 8.05627 35.3652 11.7313 35.3652H48.3063C52.0063 35.3652 55.0063 38.3903 55.0063 42.0653V48.6403C55.0063 52.3153 51.9813 55.3402 48.3063 55.3402Z" stroke="#0C131C" stroke-width="2.5" stroke-linecap="round" stroke-linejoin="round"/>
<path d="M15 12.8403V17.8403" stroke="#0C131C" stroke-width="2.5" stroke-linecap="round" stroke-linejoin="round"/>
<path d="M25 12.8403V17.8403" stroke="#0C131C" stroke-width="2.5" stroke-linecap="round" stroke-linejoin="round"/>
<path d="M15 42.8403V47.8403" stroke="#0C131C" stroke-width="2.5" stroke-linecap="round" stroke-linejoin="round"/>
<path d="M25 42.8403V47.8403" stroke="#0C131C" stroke-width="2.5" stroke-linecap="round" stroke-linejoin="round"/>
<path d="M35 15.3403H45" stroke="#0C131C" stroke-width="2.5" stroke-linecap="round" stroke-linejoin="round"/>
<path d="M35 45.3403H45" stroke="#0C131C" stroke-width="2.5" stroke-linecap="round" stroke-linejoin="round"/>
</svg>
