<svg width="31" height="50" viewBox="0 0 31 50" fill="none" xmlns="http://www.w3.org/2000/svg">
<path d="M22.1865 1.86621C23.7614 1.13532 25.2792 0.822511 26.9453 1.36523L27.2812 1.48535L27.2969 1.49121L27.3105 1.49902C28.1826 1.9818 28.869 2.51687 29.4082 3.17969C29.9476 3.8427 30.331 4.62223 30.6133 5.58203L30.6182 5.59961L30.6211 5.61816C31.2676 10.1494 29.4029 15.1207 26.8037 19.7578C24.2012 24.4009 20.8319 28.7599 18.416 32.0635L18.4141 32.0664C17.9694 32.6582 17.5119 33.2362 17.0498 33.8115L17.0508 33.8125C16.8409 34.0777 16.8403 34.0779 16.626 34.3486V34.3496C16.2536 34.8158 15.8727 35.2745 15.4932 35.7314C15.3618 35.9251 15.271 36.0607 15.207 36.1719C15.1434 36.2824 15.1169 36.3524 15.1064 36.4121C15.0963 36.4703 15.0979 36.538 15.1211 36.6484C15.144 36.7578 15.1835 36.8922 15.2422 37.0859C16.0356 38.4168 17.0096 39.5908 17.9932 40.8223L18 40.8311L18.0059 40.8398C18.3047 41.2874 18.4864 41.554 18.5762 41.8779C18.6642 42.1954 18.6621 42.5609 18.6621 43.1924V43.5449L18.3291 43.4277C16.8256 42.8992 16.0889 41.7123 15.2598 40.5684L15.2539 40.5596C14.7838 39.8527 14.563 39.5221 14.3018 39.2393C14.0764 38.9952 13.8173 38.7867 13.3311 38.4062C13.2882 38.4978 13.246 38.5909 13.2021 38.6846L13.1973 38.6943C12.7974 39.4577 12.348 40.1118 11.8428 40.793L11.8418 40.792C11.6545 41.0456 11.4684 41.3003 11.2754 41.5615H11.2744C11.0755 41.8284 10.8768 42.0961 10.6719 42.3711L10.6709 42.3701C10.4682 42.6428 10.2665 42.9163 10.0576 43.1973L8.83496 44.8398C8.337 45.5126 7.84586 46.19 7.3584 46.8711L7.35742 46.8721C7.22602 47.0537 7.09437 47.2357 6.95898 47.4229L6.95801 47.4219C6.61444 47.8971 6.27406 48.3748 5.93262 48.8525L5.9248 48.8643L5.91504 48.875C5.72626 49.084 5.53728 49.2935 5.34277 49.5088L5.26855 49.5908H3.9209L3.9375 49.3252C4.02767 47.9247 4.6911 46.9128 5.45508 45.9443L6.23438 44.9785C6.42203 44.7379 6.60939 44.497 6.80273 44.249C7.37193 43.5194 7.94524 42.7926 8.51758 42.0664C8.99164 41.4599 9.4645 40.8519 9.93555 40.2432C10.3312 39.7319 10.7293 39.2227 11.127 38.7139C11.6039 38.0594 11.9543 37.4535 12.3037 36.7373C12.1307 36.4797 11.9565 36.2213 11.7783 35.9561C11.0196 34.8258 10.2624 33.694 9.50586 32.5625C9.18145 32.0778 8.8565 31.5935 8.53125 31.1094C6.85422 28.6126 5.19475 26.1039 3.63867 23.5225V23.5234C3.46434 23.2356 3.46494 23.235 3.28711 22.9414L3.28613 22.9395C1.27515 19.5571 -0.215506 15.8259 0.383789 11.7656L0.388672 11.7305L0.40332 11.6982C1.12844 10.0999 2.00361 8.67452 3.77637 8.00781L3.79785 8L3.82031 7.99609C5.46552 7.70033 6.92911 7.79798 8.40332 8.57031L8.69824 8.73438L8.70996 8.74121L8.72168 8.74902C11.04 10.4762 12.6022 13.1504 13.8467 15.6855C15.7444 10.3237 16.7078 7.60245 17.75 5.86523C18.8098 4.09872 19.9573 3.34093 22.1533 1.88477L22.1689 1.87402L22.1865 1.86621ZM26.7295 3.2998C25.3738 2.94863 24.4082 3.00036 23.5508 3.3584C22.6769 3.72347 21.8856 4.41693 20.9004 5.41602C16.6462 10.4109 15.0618 16.9901 15.4287 23.4375L15.4434 23.7021H13.6191L13.6367 23.4355C13.663 23.0408 13.6897 22.6457 13.7168 22.2393L13.709 21.8438C13.5524 17.7747 11.2015 13.9255 8.51172 10.9336C7.93292 10.4017 7.41217 10.0838 6.84766 9.90039C6.28135 9.71647 5.65335 9.66176 4.84863 9.68164C3.92961 9.8352 3.45031 10.2637 2.77441 10.9785C1.94735 12.3998 1.93841 13.6434 2.16992 15.3115C3.57862 20.3847 6.35482 24.8597 9.26465 29.2432L10.5176 31.1201V31.1211C10.7232 31.431 10.7233 31.4314 10.9326 31.7471C11.3247 32.336 11.7222 32.9224 12.1211 33.5078H12.1221C12.3527 33.8488 12.5837 34.1897 12.8213 34.541C13.0903 34.8605 13.1175 34.8932 13.3555 35.1758H14.1064C14.2821 35.0037 14.3694 34.9163 14.4512 34.8145C14.5447 34.698 14.6332 34.5609 14.8291 34.2568L14.834 34.25C14.9893 34.0268 15.1447 33.8032 15.3047 33.5732C15.4683 33.3308 15.6322 33.0877 15.8008 32.8379L15.8018 32.8369C15.9736 32.587 16.1452 32.3365 16.3223 32.0791L17.8818 29.7842L17.8828 29.7822C18.1692 29.3646 18.4554 28.9467 18.7422 28.5293C20.7492 25.5862 22.5803 22.5492 24.3369 19.4453L24.3379 19.4443C24.4694 19.2148 24.6009 18.9846 24.7363 18.748L25.9287 16.6621C26.9642 14.825 27.5524 13.6542 27.916 12.4346C28.3978 10.8185 28.4865 9.11077 28.6602 5.63379C28.1455 4.51035 27.7773 3.80313 26.7295 3.2998Z" fill="#FD0D0D" stroke="#FD0D0D" stroke-width="0.5"/>
</svg>
