<svg width="21" height="18" viewBox="0 0 21 18" fill="none" xmlns="http://www.w3.org/2000/svg">
<path d="M2.5 1.34082H18.5C19.6 1.34082 20.5 2.24082 20.5 3.34082V15.3408C20.5 16.4408 19.6 17.3408 18.5 17.3408H2.5C1.4 17.3408 0.5 16.4408 0.5 15.3408V3.34082C0.5 2.24082 1.4 1.34082 2.5 1.34082Z" fill="#0C131C"/>
<path d="M20.5 3.34082L10.5 10.3408L0.5 3.34082" fill="#0C131C"/>
<path d="M20.5 3.34082C20.5 2.24082 19.6 1.34082 18.5 1.34082H2.5C1.4 1.34082 0.5 2.24082 0.5 3.34082M20.5 3.34082V15.3408C20.5 16.4408 19.6 17.3408 18.5 17.3408H2.5C1.4 17.3408 0.5 16.4408 0.5 15.3408V3.34082M20.5 3.34082L10.5 10.3408L0.5 3.34082" stroke="#00D1E8" stroke-linecap="round" stroke-linejoin="round"/>
</svg>
