<svg width="71" height="58" viewBox="0 0 71 58" fill="none" xmlns="http://www.w3.org/2000/svg">
<path d="M35.3606 8.04288C35.5521 7.65984 35.8432 6.79034 35.4755 6.37666C35.0158 5.85955 34.154 5.91701 34.5562 4.8828C34.8435 4.97856 35.4526 5.22753 35.5905 5.45736C35.1883 4.94025 34.3839 3.8371 34.3839 3.56131C34.3839 3.21657 35.1309 2.18236 36.0501 2.00999C36.7856 1.8721 38.1186 1.87593 38.6931 1.89508C38.9421 1.56951 39.532 1.04478 39.8997 1.55039C40.2674 2.05601 39.9763 3.02503 39.7848 3.44634L39.1528 3.96345V5.80204C39.2485 6.08932 39.2102 6.76731 38.2909 7.18099L40.187 8.10029C40.9339 8.23435 42.7036 8.61739 43.8067 9.07704C45.1857 9.6516 47.1392 10.456 47.9436 11.72C48.633 12.6202 50.035 14.6388 50.1269 15.5121C50.5674 16.8719 52.1493 20.0741 54.9532 22.0047C57.826 22.675 64.0887 24.5672 66.1571 26.7735C68.7427 29.5314 70.4663 32.8064 70.294 36.8858C69.0299 35.9282 65.8239 34.4152 63.112 36.0239C62.1161 37.8817 59.3428 41.9764 56.2172 43.4932C53.1721 44.3742 47.415 46.6648 48.7479 48.7792L49.4374 49.4687C48.0776 50.1007 44.5996 50.8131 41.5659 48.6068C40.6083 47.9557 38.0381 46.7338 35.4181 47.0555C34.9776 47.0172 32.6947 47.5381 27.087 49.9283C27.0487 48.7983 26.6848 46.366 25.5357 45.6766C24.7313 45.0637 22.5135 43.7116 20.0774 43.206C18.9282 42.8995 16.5036 41.9879 15.998 40.7928C15.5383 39.5862 14.6075 36.8973 14.5616 35.7941C14.1977 34.1662 12.2059 31.4734 7.14973 33.7257C6.17298 34.2428 3.71386 34.8633 1.69141 33.2086C2.40003 32.9022 4.08158 32.0365 5.13877 31.0253C6.53687 29.7804 9.49394 27.0838 10.1375 26.2564C10.9418 25.2222 14.5616 22.1196 15.9405 21.8323C17.3386 21.1237 20.5025 19.3732 21.9734 18.0402C23.2949 15.9718 26.4205 11.766 28.351 11.4902C29.3086 11.0497 31.2353 9.85844 31.2813 8.61739C31.9515 8.31099 33.7058 7.76713 35.3606 8.04288Z" stroke="#800080"/>
<path d="M31.2804 8.67465C30.6484 8.71296 29.3844 9.15728 29.3844 10.6282L27.7181 13.2137C27.6415 13.8265 27.5113 15.1442 27.6032 15.5119C26.7796 16.0482 25.1784 17.7642 25.3622 20.3382L25.9945 23.4409L26.2243 26.601C26.7031 26.9074 27.8561 27.5203 28.6375 27.5203C29.6142 27.5203 30.591 26.9457 30.4761 24.6474C29.8249 24.4942 28.534 23.9005 28.58 22.7514C28.6375 21.315 29.844 20.683 28.9247 18.1549C29.8823 17.657 31.8665 16.3163 32.1423 14.9374C32.4487 14.4011 32.9122 13.2367 32.3147 12.8689C31.7171 12.5012 31.9125 13.9032 32.0848 14.6501L33.2914 17.9825V19.8211C32.736 21.1426 31.6137 23.889 31.5677 24.3027C31.5103 24.8198 31.5677 27.0606 31.7401 27.7501C31.878 28.3017 32.0657 29.7419 32.1423 30.3931L32.0848 31.8295C31.2038 33.4191 29.3959 36.6328 29.212 36.7707C28.9631 37.2303 28.58 38.8046 29.0397 41.4246L29.7866 45.0444C29.7674 46.3275 29.6257 48.9514 29.212 49.1812L28.8673 49.6983L30.3037 53.3755C30.7442 54.1799 31.7631 55.7886 32.3147 55.7886C32.736 55.5397 33.4983 54.7315 33.1765 53.4904C32.8547 52.2494 32.2764 50.7134 32.0274 50.1005C31.9125 49.4685 31.7516 47.8712 32.0274 46.5382C32.2189 44.7954 32.6709 41.0569 32.9467 40.0457C33.2225 39.0345 33.9426 36.4451 34.2682 35.2768L35.8195 31.4273C36.1834 30.6995 36.9456 28.8417 37.0835 27.233L37.2559 27.0031C37.275 27.5586 37.3593 28.7728 37.5432 29.1865C37.773 29.7036 37.4857 29.876 39.3818 33.4382L39.8989 34.5874L40.0138 35.679C39.7073 36.2919 39.0715 37.5866 38.9796 37.8623C38.8647 38.2071 38.7497 40.4479 38.9796 40.965C39.2094 41.4821 40.9905 46.136 42.1396 48.0321C42.3695 48.7024 42.6912 50.2039 42.1396 50.8474C41.9481 51.4411 41.8868 52.9963 43.1739 54.4672L46.9085 57.34L48.0002 56.6505C47.7895 55.8653 47.2762 54.1799 46.9085 53.7202C46.4489 53.1457 44.5528 51.7093 44.4953 49.1237C44.0932 45.5423 43.3807 37.7015 43.7484 34.9895C43.442 31.4847 42.6338 24.3027 41.8524 23.6132C41.5268 22.5407 40.5654 20.3727 39.3243 20.2808C37.773 20.1659 35.1875 20.1084 34.9576 20.5681C36.0685 21.0086 38.8072 21.7287 40.8756 21.0852L41.8524 20.7979C41.3736 19.7062 40.7262 17.2126 41.9673 15.9716M41.9673 15.9716C42.1013 16.3738 42.6912 17.2241 43.9782 17.408C44.0549 17.5037 44.1736 17.994 44.0357 19.1891C44.5145 20.0893 45.4721 21.993 45.4721 22.4067C45.4721 22.8203 45.4721 23.1153 45.4721 23.211L43.9208 23.6132C43.7101 24.0729 43.3922 25.1416 43.8059 25.7391C44.2196 26.3367 45.0891 26.984 45.4721 27.233H46.0467C46.7361 26.352 48.1381 24.3717 48.23 23.4983C48.3449 22.4067 48.1725 20.9703 47.4256 19.4189C47.2341 18.6337 46.8166 16.9253 46.6787 16.3738C46.5063 15.6843 45.6445 14.0181 45.5296 13.9032C45.4146 13.7882 44.2655 9.24921 42.7717 8.96193L40.8182 8.27246H40.0138C39.2094 8.80872 37.2559 9.70886 35.8769 9.01939L35.4173 8.90448C35.2832 9.01939 35.0381 9.29518 35.13 9.47904C35.2449 9.70886 36.8537 12.2369 37.6006 12.2944C38.1982 12.3404 40.1095 10.2834 40.9905 9.24921C41.1054 9.15345 41.4042 9.1343 41.68 9.82378C42.0247 10.6856 42.7717 12.8689 42.4269 14.7075L41.9673 15.9716Z" stroke="#800080"/>
</svg>
