<svg width="24" height="17" viewBox="0 0 24 17" fill="none" xmlns="http://www.w3.org/2000/svg">
<path d="M18.5619 9.37718C17.4602 9.37718 16.4252 8.93993 15.4878 8.2241L15.7143 7.21418L15.7218 7.17398C15.9288 6.1013 16.5692 4.29797 18.5612 4.29797C20.0536 4.29797 21.2641 5.43695 21.2641 6.83969C21.2641 8.23891 20.0529 9.37789 18.5612 9.37789L18.5619 9.37718ZM18.5619 1.72593C16.0232 1.72593 14.0501 3.27607 13.2498 5.82907C12.0311 4.10614 11.1012 2.03483 10.5627 0.290039H7.82826V6.97863C7.82451 8.30097 6.68754 9.37013 5.28133 9.37366C3.87513 9.37013 2.73816 8.29744 2.73441 6.97863V0.290039H0V6.97863C0 9.71852 2.37068 11.9633 5.28133 11.9633C8.19499 11.9633 10.5627 9.71923 10.5627 6.97863V5.85799C11.0937 6.89752 11.7461 7.9554 12.5389 8.88844L10.8634 16.29H13.6601L14.875 10.9196C15.9378 11.5585 17.1602 11.9626 18.5627 11.9626C21.5626 11.9626 24 9.65576 24 6.83828C24 4.01728 21.5626 1.72522 18.5627 1.72522L18.5619 1.72593Z" fill="#0C131C"/>
</svg>
