<svg
    width="24"
    height="29"
    viewBox="0 0 24 29"
    fill="none"
    xmlns="http://www.w3.org/2000/svg"
>
    <path
        d="M5.91259 0.000927098C6.05684 0.000817928 6.20109 0.000620781 6.34534 0.000343871C6.73201 -0.000141422 7.11866 0.000620425 7.50533 0.00165712C7.91263 0.00255747 8.31993 0.00236897 8.72723 0.00233025C9.41033 0.00242474 10.0934 0.00329893 10.7765 0.00468946C11.5636 0.00628588 12.3507 0.00681825 13.1378 0.00674398C13.9804 0.00667526 14.823 0.00737999 15.6655 0.00831005C15.9065 0.00852498 16.1474 0.00859794 16.3884 0.00863843C16.7682 0.00874105 17.148 0.00936631 17.5278 0.0103788C17.7319 0.0108111 17.9359 0.0107598 18.1399 0.0106888C19.67 0.0160296 21.1359 0.0832878 22.3441 1.1408C23.2119 2.08765 23.4898 3.17465 23.4693 4.4295C23.4685 4.51334 23.4678 4.59718 23.4671 4.68356C23.4652 4.88825 23.4624 5.09293 23.4594 5.29761C23.3329 5.29783 23.3329 5.29783 23.2038 5.29806C21.15 5.30182 19.0963 5.30781 17.0425 5.31626C16.0493 5.32029 15.0561 5.32357 14.0629 5.32509C13.1971 5.32641 12.3312 5.32914 11.4653 5.33356C11.007 5.33586 10.5488 5.33745 10.0905 5.33734C9.65866 5.33727 9.22688 5.33909 8.79506 5.34234C8.63703 5.3432 8.47899 5.34338 8.32095 5.34281C7.10252 5.31427 7.10252 5.31427 6.02101 5.80454C5.66857 6.23734 5.67374 6.66353 5.67779 7.1986C5.67726 7.2879 5.67673 7.3772 5.67618 7.46921C5.67477 7.76842 5.67551 8.06758 5.67623 8.36678C5.67565 8.58128 5.67493 8.79578 5.67409 9.01029C5.67256 9.47211 5.67197 9.93393 5.67212 10.3958C5.67232 11.1254 5.67034 11.855 5.66804 12.5847C5.66389 14.0011 5.662 15.4176 5.66032 16.8341C5.65805 18.6382 5.65466 20.4424 5.64945 22.2466C5.64743 22.9726 5.64646 23.6985 5.64631 24.4245C5.64604 24.8751 5.64494 25.3258 5.64363 25.7764C5.64319 25.9861 5.64311 26.1958 5.64339 26.4054C5.64373 26.6906 5.64285 26.9757 5.64165 27.2609C5.64206 27.3448 5.64246 27.4286 5.64288 27.5151C5.6386 28.0863 5.6386 28.0863 5.4127 28.3122C5.14007 28.3327 4.88045 28.3409 4.60795 28.3375C4.53005 28.3368 4.45215 28.336 4.37188 28.3352C3.08197 28.311 1.88705 28.0521 0.951725 27.0955C0.00443493 25.7921 -0.00481787 24.5337 0.00150606 22.9832C0.00125965 22.7716 0.000882304 22.56 0.000384472 22.3485C-0.000566111 21.776 0.000383291 21.2035 0.00173618 20.631C0.00288657 20.031 0.0024666 19.4311 0.00226875 18.8311C0.00217934 17.8239 0.00330037 16.8167 0.00516941 15.8094C0.00731651 14.6458 0.00767088 13.4821 0.00703861 12.3184C0.00646088 11.1976 0.00703419 10.0768 0.00817141 8.95605C0.00864171 8.47963 0.00873176 8.0032 0.00851795 7.52677C0.00832671 6.96572 0.00915092 6.40467 0.0107542 5.84362C0.0111836 5.63796 0.0112713 5.4323 0.0109885 5.22664C0.0106607 4.94549 0.0115857 4.66437 0.0128225 4.38322C0.0124394 4.30225 0.0120563 4.22128 0.0116615 4.13785C0.0206657 2.97727 0.410195 2.00711 1.204 1.15902C2.53852 0.000911293 4.23494 -0.00635855 5.91259 0.000927098Z"
        fill="#0C141D"></path>
    <path
        d="M10.0782 9.65706C11.7931 9.65249 13.5081 9.64875 15.2231 9.64656C16.0193 9.64551 16.8156 9.64408 17.6118 9.64177C18.3057 9.63975 18.9995 9.63844 19.6933 9.63799C20.0609 9.63772 20.4284 9.6371 20.796 9.63563C21.2058 9.634 21.6156 9.63395 22.0254 9.63405C22.1479 9.63332 22.2704 9.63259 22.3967 9.63184C22.5078 9.63211 22.619 9.63239 22.7336 9.63268C22.8306 9.63249 22.9276 9.63231 23.0275 9.63211C23.2583 9.65706 23.2583 9.65706 23.4611 9.85984C23.4869 10.107 23.4869 10.107 23.4875 10.4244C23.4882 10.5445 23.4889 10.6645 23.4897 10.7882C23.4894 10.9207 23.4892 11.0531 23.4889 11.1896C23.4894 11.33 23.4899 11.4704 23.4905 11.6108C23.4919 11.9932 23.4919 12.3755 23.4917 12.7579C23.4916 13.0778 23.492 13.3977 23.4925 13.7175C23.4937 14.4737 23.4937 15.2298 23.4931 15.9859C23.4925 16.7629 23.4937 17.5398 23.4959 18.3168C23.4977 18.9855 23.4983 19.6541 23.4979 20.3227C23.4978 20.7213 23.498 21.1198 23.4994 21.5184C23.5007 21.8946 23.5005 22.2708 23.4992 22.6471C23.4988 22.8484 23.5 23.0497 23.5012 23.251C23.4936 24.5683 23.383 26.0091 22.4429 27.0122C20.909 28.4537 19.0181 28.3279 17.0445 28.3255C16.8463 28.3256 16.6481 28.3257 16.4499 28.3258C16.0369 28.3259 15.624 28.3257 15.2111 28.3253C14.6807 28.3247 14.1503 28.325 13.6199 28.3256C13.2119 28.326 12.8038 28.3259 12.3957 28.3256C12.2 28.3255 12.0042 28.3256 11.8085 28.3259C11.5365 28.3261 11.2644 28.3257 10.9924 28.3252C10.9111 28.3254 10.8298 28.3256 10.746 28.3258C10.1911 28.3236 10.1911 28.3236 10.0782 28.2106C10.0685 27.9299 10.0654 27.6516 10.0667 27.3708C10.0666 27.2828 10.0666 27.1948 10.0666 27.1041C10.0667 26.8117 10.0675 26.5193 10.0683 26.2269C10.0685 26.0247 10.0686 25.8226 10.0687 25.6204C10.0691 25.0872 10.0701 24.554 10.0712 24.0208C10.0722 23.4772 10.0727 22.9335 10.0732 22.3899C10.0743 21.3224 10.076 20.2548 10.0782 19.1873C10.1683 19.1872 10.2584 19.187 10.3512 19.1869C11.2015 19.1851 12.0517 19.1808 12.902 19.1739C13.3391 19.1705 13.7761 19.1679 14.2133 19.1675C14.6353 19.1671 15.0573 19.1642 15.4794 19.1596C15.6401 19.1583 15.8009 19.1578 15.9617 19.1583C16.1875 19.1588 16.413 19.1562 16.6388 19.1528C16.7671 19.1521 16.8954 19.1514 17.0277 19.1507C17.4921 19.0648 17.6569 18.9134 17.9863 18.579C18.3716 17.423 18.1521 16.1471 18.189 14.9291C15.5124 14.9291 12.8359 14.9291 10.0782 14.9291C10.0782 13.1893 10.0782 11.4496 10.0782 9.65706Z"
        fill="#0B131C"></path>
</svg>