<svg width="60" height="61" viewBox="0 0 60 61" fill="none" xmlns="http://www.w3.org/2000/svg">
<path d="M13.8531 28.1396C2.15312 28.9646 2.15312 45.9897 13.8531 46.8147H18.6532" stroke="#0C131C" stroke-width="2.5" stroke-miterlimit="10" stroke-linecap="round" stroke-linejoin="round"/>
<path d="M13.98 28.1395C5.95496 5.81446 39.8048 -3.11052 43.6798 20.3395C54.5048 21.7145 58.8799 36.1395 50.6799 43.3145C48.1799 45.5895 44.9549 46.8395 41.5799 46.8145H41.3548" stroke="#0C131C" stroke-width="2.5" stroke-miterlimit="10" stroke-linecap="round" stroke-linejoin="round"/>
<path d="M42.5 41.6655C42.5 43.5155 42.0999 45.2655 41.3499 46.8155C41.1499 47.2655 40.925 47.6905 40.675 48.0905C38.525 51.7155 34.55 54.1655 30 54.1655C25.45 54.1655 21.475 51.7155 19.325 48.0905C19.075 47.6905 18.8501 47.2655 18.6501 46.8155C17.9001 45.2655 17.5 43.5155 17.5 41.6655C17.5 34.7655 23.1 29.1655 30 29.1655C36.9 29.1655 42.5 34.7655 42.5 41.6655Z" stroke="#0C131C" stroke-width="2.5" stroke-miterlimit="10" stroke-linecap="round" stroke-linejoin="round"/>
<path d="M26.1016 41.6648L28.5765 44.1398L33.9016 39.2148" stroke="#0C131C" stroke-width="2.5" stroke-linecap="round" stroke-linejoin="round"/>
</svg>
