<svg width="24" height="25" viewBox="0 0 24 25" fill="none" xmlns="http://www.w3.org/2000/svg">
<rect x="0.59375" y="0.34082" width="23.4065" height="24.0391" rx="3" fill="#0173AF"/>
<path d="M6.61543 8.11318C7.49682 8.11318 8.21133 7.39868 8.21133 6.51729C8.21133 5.63589 7.49682 4.92139 6.61543 4.92139C5.73404 4.92139 5.01953 5.63589 5.01953 6.51729C5.01953 7.39868 5.73404 8.11318 6.61543 8.11318Z" fill="white"/>
<path d="M5.01953 10.2387C5.01953 9.65115 5.49588 9.1748 6.08346 9.1748H7.1474C7.73499 9.1748 8.21133 9.65114 8.21133 10.2387V18.7502C8.21133 19.3378 7.73499 19.8141 7.1474 19.8141H6.08346C5.49588 19.8141 5.01953 19.3378 5.01953 18.7502V10.2387Z" fill="white"/>
<path d="M11.4038 19.8141H12.4677C13.0553 19.8141 13.5316 19.3378 13.5316 18.7502V13.9625C13.5316 12.3666 16.7234 11.3027 16.7234 13.4305V18.7506C16.7234 19.3382 17.1998 19.8141 17.7874 19.8141H18.8513C19.4389 19.8141 19.9152 19.3378 19.9152 18.7502V12.3666C19.9152 10.2387 18.3193 9.1748 16.1915 9.1748C14.8242 9.1748 14.1158 9.83376 13.7841 10.3048C13.7277 10.3849 13.5316 10.3367 13.5316 10.2387C13.5316 9.65114 13.0553 9.1748 12.4677 9.1748H11.4038C10.8162 9.1748 10.3398 9.65115 10.3398 10.2387V18.7502C10.3398 19.3378 10.8162 19.8141 11.4038 19.8141Z" fill="white"/>
</svg>
