<svg width="207" height="15" viewBox="0 0 207 15" fill="none" xmlns="http://www.w3.org/2000/svg">
    <path
        d="M15.746 4.60587C16.368 4.60587 16.99 4.60587 37.8367 4.66369C58.6834 4.72152 99.736 4.83717 122.906 5.18586C146.076 5.53456 150.119 6.1128 152.435 6.46851C156.648 7.11562 160.391 7.40947 164.081 7.70034C172.764 8.38489 175.32 7.40947 178.46 7.11859C182.215 6.77081 190.964 6.70857 201.884 6.70857C205.341 6.70857 204.563 6.70857 195.999 5.78338C187.435 4.85819 171.107 3.00782 144.58 1.99677C118.052 0.985725 81.8203 0.870077 59.812 1.09962C37.8037 1.32917 31.1171 1.90741 25.8065 2.20529C12.4784 2.95288 10.261 2.85362 5.94934 3.78231C4.39337 4.11745 2.58955 4.9423 1.39501 5.47323C0.200469 6.00416 -0.266036 6.35111 30.8273 5.66248C61.9207 4.97384 124.588 3.23912 157.338 2.40329C190.088 1.56747 191.021 1.68312 192.201 1.97399C197.047 3.16814 199.352 4.71801 201.399 5.59589C202.282 5.97444 204.686 6.70156 205.958 7.75291C206.469 8.17519 202.254 8.11037 195.676 7.82124C189.098 7.53212 179.146 6.95388 171.298 6.71382C163.45 6.47377 158.007 6.58941 143.23 7.8633C128.452 9.13718 104.505 11.5658 88.8249 12.8169C73.1451 14.068 66.4586 14.068 61.6922 13.9524C54.2715 13.7723 47.8266 12.6732 41.2389 11.5062C32.611 9.97779 26.6029 8.93042 24.7015 8.46257C24.5515 8.42565 25.1609 8.22952 50.6704 8.45906C76.1798 8.68861 126.718 9.26685 153.375 9.62255C180.032 9.97826 181.276 10.0939 183.316 10.1535C185.356 10.2131 188.156 10.2131 191.039 10.2131"
        stroke="#FE6629" stroke-width="2" stroke-linecap="round" />
</svg>