<svg width="20" height="21" viewBox="0 0 20 21" fill="none" xmlns="http://www.w3.org/2000/svg">
<path d="M8.1738 14.9598C7.83178 15.3191 7.65866 15.739 7.57843 16.2022C7.56999 16.2628 7.49821 16.3364 7.43909 16.3624C6.37082 16.7996 5.33632 16.5962 4.66496 15.5096C4.47495 15.2022 4.20049 14.9338 3.92603 14.6957C3.63468 14.4403 3.26733 14.384 2.89154 14.4403C2.64241 14.4749 2.59174 14.6135 2.75642 14.8039C2.81131 14.8689 2.87465 14.9295 2.94643 14.9728C3.52912 15.3104 3.87959 15.8645 4.11182 16.4663C4.47495 17.41 5.17165 17.791 6.08791 17.8473C6.49327 17.8732 6.89862 17.804 7.3082 17.7823C7.37153 17.778 7.43065 17.7737 7.51932 17.7693C7.51932 18.1633 7.51932 18.5442 7.51932 18.9252C7.51932 19.1287 7.51932 19.3278 7.52777 19.5313C7.54466 20.0378 7.23642 20.2802 6.7635 20.12C5.67834 19.7477 4.68607 19.1979 3.79936 18.462C1.70503 16.7347 0.455193 14.5009 0.0920637 11.7736C-0.613082 6.47053 2.80286 1.52676 7.92467 0.396881C13.266 -0.780619 18.6159 2.72158 19.7475 8.18916C20.4949 11.7953 19.5744 14.9555 17.1042 17.6265C16.0613 18.752 14.7946 19.5486 13.3716 20.0724C13.2745 20.107 13.1689 20.1416 13.0676 20.1503C12.7002 20.1763 12.4976 19.9815 12.4976 19.6005C12.4976 18.726 12.5187 17.8559 12.5018 16.9814C12.4933 16.5875 12.4553 16.1849 12.354 15.8126C12.2738 15.5096 12.0753 15.2412 11.9233 14.9425C12.1218 14.9078 12.3582 14.8732 12.5947 14.8256C13.4349 14.6654 14.2245 14.3927 14.9001 13.8342C15.7024 13.1719 16.112 12.2758 16.2809 11.2628C16.4202 10.4403 16.4667 9.61774 16.2598 8.79523C16.1162 8.22812 15.8544 7.72162 15.4871 7.27573C15.4068 7.17616 15.3857 7.09391 15.4237 6.96404C15.6686 6.14585 15.5968 5.34065 15.3182 4.54843C15.2802 4.43588 15.2168 4.39259 15.1028 4.39259C14.6806 4.38826 14.2794 4.50081 13.9036 4.68263C13.4856 4.8861 13.0887 5.13718 12.6791 5.35364C12.582 5.40558 12.4511 5.44022 12.354 5.41424C10.7959 5.0203 9.23785 5.01597 7.67977 5.41857C7.58688 5.44455 7.4602 5.41424 7.37576 5.35796C6.71706 4.93805 6.04569 4.54843 5.26454 4.41423C4.8043 4.33198 4.77052 4.35362 4.63962 4.79952C4.4285 5.53545 4.39472 6.27139 4.62695 7.01166C4.64384 7.07227 4.62696 7.17183 4.58895 7.21512C3.74447 8.22379 3.55446 9.40562 3.68535 10.6784C3.7698 11.5225 3.96825 12.3234 4.43694 13.0334C5.06186 13.9771 5.97813 14.4619 7.0253 14.7217C7.39265 14.8256 7.76844 14.8819 8.1738 14.9598Z" fill="#0C131C"/>
</svg>
