<svg width="18" height="19" viewBox="0 0 18 19" fill="none" xmlns="http://www.w3.org/2000/svg">
<rect y="0.168945" width="18" height="18.4865" rx="1" fill="#0C131C"/>
<path d="M4.6218 6.14498C5.29961 6.14498 5.84908 5.59551 5.84908 4.9177C5.84908 4.2399 5.29961 3.69043 4.6218 3.69043C3.944 3.69043 3.39453 4.2399 3.39453 4.9177C3.39453 5.59551 3.944 6.14498 4.6218 6.14498Z" fill="white"/>
<path d="M3.39453 7.7801C3.39453 7.32823 3.76085 6.96191 4.21271 6.96191H5.03089C5.48276 6.96191 5.84908 7.32822 5.84908 7.7801V14.3255C5.84908 14.7774 5.48276 15.1437 5.03089 15.1437H4.21271C3.76085 15.1437 3.39453 14.7774 3.39453 14.3255V7.7801Z" fill="white"/>
<path d="M8.32209 15.1437H9.14027C9.59215 15.1437 9.95845 14.7774 9.95845 14.3255V10.6437C9.95845 9.41646 12.413 8.59828 12.413 10.2346V14.3259C12.413 14.7778 12.7793 15.1437 13.2312 15.1437H14.0494C14.5012 15.1437 14.8675 14.7774 14.8675 14.3255V9.41646C14.8675 7.7801 13.6403 6.96191 12.0039 6.96191C10.9524 6.96191 10.4077 7.46866 10.1526 7.83091C10.1092 7.89248 9.95845 7.8554 9.95845 7.7801C9.95845 7.32822 9.59215 6.96191 9.14027 6.96191H8.32209C7.87021 6.96191 7.50391 7.32823 7.50391 7.7801V14.3255C7.50391 14.7774 7.87021 15.1437 8.32209 15.1437Z" fill="white"/>
</svg>
