<svg width="24" height="25" viewBox="0 0 24 25" fill="none" xmlns="http://www.w3.org/2000/svg">
<path d="M14.25 8.71111V7.75115C14.25 6.41224 13.7902 5.70493 13.2871 5.42693C12.8151 5.16626 12.0447 5.13951 11.0176 5.72186L10.8086 5.84588L7.88867 7.67596C7.88361 7.67913 7.87818 7.68267 7.87305 7.68572C7.44747 7.93841 6.94594 8.091 6.42969 8.091H5C4.11561 8.091 3.59001 8.31153 3.28027 8.62127C2.97059 8.93102 2.75 9.45671 2.75 10.341V14.341C2.75004 15.2253 2.97056 15.751 3.28027 16.0607C3.59003 16.3704 4.11571 16.591 5 16.591H7L7.07715 16.5949C7.45511 16.6335 7.75 16.9528 7.75 17.341C7.74989 17.7291 7.45506 18.0485 7.07715 18.0871L7 18.091H5C3.88445 18.091 2.90998 17.8115 2.21973 17.1213C1.52951 16.4311 1.25004 15.4565 1.25 14.341V10.341C1.25 9.22544 1.52954 8.25098 2.21973 7.56072C2.90999 6.87046 3.88439 6.591 5 6.591H6.42969C6.65343 6.591 6.893 6.523 7.10742 6.39568L10.0117 4.57537L10.2725 4.4201C11.5798 3.67982 12.9237 3.51272 14.0127 4.11443C15.1746 4.75645 15.75 6.11008 15.75 7.75115V8.71111C15.7498 9.12518 15.4141 9.46111 15 9.46111C14.5859 9.46111 14.2502 9.12518 14.25 8.71111Z" fill="#F5F5F5"/>
<path d="M14.2503 16.9307V13.291C14.2503 12.8769 14.5861 12.5411 15.0003 12.541C15.4145 12.541 15.7503 12.8768 15.7503 13.291V16.9307C15.7503 18.5677 15.1745 19.9204 14.0139 20.5635C12.9255 21.1665 11.5812 21.0024 10.2727 20.2617L10.012 20.1064L9.9495 20.0625C9.64926 19.8291 9.56835 19.4014 9.77469 19.0723C9.98092 18.7435 10.4008 18.6298 10.7415 18.7979L10.8089 18.8359L11.0179 18.96C12.0441 19.5416 12.8148 19.5128 13.2874 19.251C13.7916 18.9713 14.2503 18.2632 14.2503 16.9307Z" fill="#F5F5F5"/>
<path d="M18.5203 9.06917C18.8786 8.91916 19.2872 9.06788 19.4685 9.40218L19.5017 9.47054L19.5916 9.69612C20.482 12.0346 20.1525 14.72 18.5994 16.7908C18.3508 17.1219 17.8808 17.1887 17.5496 16.9403C17.2184 16.6917 17.1517 16.2217 17.4002 15.8905C18.5969 14.2946 18.8833 12.2368 18.2556 10.4119L18.1179 10.0506L18.0916 9.97835C17.9808 9.6146 18.162 9.21917 18.5203 9.06917Z" fill="#F5F5F5"/>
<path d="M20.8612 7.44941C21.2428 7.28896 21.6819 7.46826 21.8426 7.8498C23.4143 11.5812 22.9445 15.9441 20.4315 19.2912C20.1828 19.6223 19.7129 19.6892 19.3817 19.4406C19.0505 19.192 18.9837 18.7221 19.2323 18.3908C21.4192 15.4779 21.8291 11.6805 20.4608 8.43183C20.3 8.05012 20.4795 7.61019 20.8612 7.44941Z" fill="#F5F5F5"/>
<path d="M21.4697 1.81049C21.7626 1.5176 22.2373 1.5176 22.5302 1.81049C22.8231 2.10338 22.8231 2.57814 22.5302 2.87104L2.53022 22.871C2.23732 23.1639 1.76256 23.1639 1.46967 22.871C1.17678 22.5781 1.17678 22.1034 1.46967 21.8105L21.4697 1.81049Z" fill="#F5F5F5"/>
</svg>
