<svg width="14" height="20" viewBox="0 0 14 20" fill="none" xmlns="http://www.w3.org/2000/svg">
<path d="M0.0781691 0.657065C1.79314 0.652492 3.50811 0.648755 5.22309 0.646559C6.01935 0.645512 6.8156 0.644085 7.61185 0.641768C8.30568 0.63975 8.99951 0.638439 9.69334 0.637986C10.0609 0.637721 10.4284 0.637097 10.796 0.635626C11.2058 0.633999 11.6156 0.633951 12.0254 0.634045C12.1479 0.633316 12.2704 0.632587 12.3967 0.631836C12.5078 0.632115 12.619 0.632393 12.7336 0.632681C12.8306 0.632494 12.9276 0.632307 13.0275 0.632114C13.2583 0.657065 13.2583 0.657065 13.4611 0.859836C13.4869 1.10696 13.4869 1.10696 13.4875 1.42439C13.4882 1.54446 13.4889 1.66453 13.4897 1.78824C13.4894 1.92069 13.4892 2.05314 13.4889 2.18961C13.4894 2.33001 13.4899 2.47041 13.4905 2.61081C13.4919 2.99318 13.4919 3.37554 13.4917 3.75791C13.4916 4.07779 13.492 4.39767 13.4925 4.71755C13.4937 5.47366 13.4937 6.22976 13.4931 6.98587C13.4925 7.76287 13.4937 8.53985 13.4959 9.31684C13.4977 9.98545 13.4983 10.6541 13.4979 11.3227C13.4978 11.7213 13.498 12.1198 13.4994 12.5184C13.5007 12.8946 13.5005 13.2708 13.4992 13.6471C13.4988 13.8484 13.5 14.0497 13.5012 14.251C13.4936 15.5683 13.383 17.0091 12.4429 18.0122C10.909 19.4537 9.01805 19.3279 7.04448 19.3255C6.84628 19.3256 6.64808 19.3257 6.44989 19.3258C6.03695 19.3259 5.62401 19.3257 5.21107 19.3253C4.68069 19.3247 4.15031 19.325 3.61993 19.3256C3.21185 19.326 2.80378 19.3259 2.3957 19.3256C2.19997 19.3255 2.00423 19.3256 1.80849 19.3259C1.53645 19.3261 1.26442 19.3257 0.992373 19.3252C0.911063 19.3254 0.829753 19.3256 0.745979 19.3258C0.19114 19.3236 0.19114 19.3236 0.0781691 19.2106C0.0685194 18.9299 0.0654408 18.6516 0.0666592 18.3708C0.0666444 18.2828 0.0666296 18.1948 0.0666143 18.1041C0.0666853 17.8117 0.0674754 17.5193 0.0682681 17.2269C0.0684571 17.0247 0.0686015 16.8226 0.0687028 16.6204C0.0690907 16.0872 0.0700875 15.554 0.0712075 15.0208C0.0722428 14.4772 0.0727073 13.9335 0.0732186 13.3899C0.0743074 12.3224 0.0760388 11.2548 0.0781691 10.1873C0.16827 10.1872 0.258372 10.187 0.351203 10.1869C1.20148 10.1851 2.05171 10.1808 2.90197 10.1739C3.33907 10.1705 3.77613 10.1679 4.21325 10.1675C4.63532 10.1671 5.05731 10.1642 5.47935 10.1596C5.64014 10.1583 5.80094 10.1578 5.96173 10.1583C6.18751 10.1588 6.41304 10.1562 6.63878 10.1528C6.76711 10.1521 6.89544 10.1514 7.02766 10.1507C7.49207 10.0648 7.65687 9.91337 7.98625 9.57901C8.37158 8.42303 8.15212 7.14707 8.18902 5.92912C5.51244 5.92912 2.83586 5.92912 0.0781691 5.92912C0.0781691 4.18934 0.0781691 2.44956 0.0781691 0.657065Z" fill="#0B131C"/>
</svg>
